<svg width="24" height="24" viewBox="0 0 24 24" fill="none" xmlns="http://www.w3.org/2000/svg">
<path d="M4.57143 9.9048V9.38099C4.57114 7.99299 4.96477 6.63341 5.70656 5.46026C6.44835 4.28712 7.50784 3.34858 8.76191 2.75372V1H15.0476V2.75372C16.3017 3.34858 17.3612 4.28712 18.103 5.46026C18.8448 6.63341 19.2384 7.99299 19.2381 9.38099V9.9048H20.8095V12H3V9.9048H4.57143Z" stroke="currentColor" stroke-width="1.5" stroke-linejoin="round"/>
<path d="M8.7627 2.57104V8.85678" stroke="currentColor" stroke-width="1.5" stroke-linejoin="round"/>
<path d="M15.0474 2.57104V8.85678" stroke="currentColor" stroke-width="1.5" stroke-linejoin="round"/>
<path d="M3.52344 14.0952H7.45201C7.45201 15.2761 7.9211 16.4085 8.75608 17.2435C9.59106 18.0785 10.7235 18.5476 11.9044 18.5476C13.0852 18.5476 14.2177 18.0785 15.0527 17.2435C15.8877 16.4085 16.3568 15.2761 16.3568 14.0952H20.2853V16.1905H18.6605C18.3881 17.0685 17.9469 17.8849 17.3614 18.5937L18.407 19.6403L16.9256 21.1216L15.8005 19.9975C14.9424 20.5655 13.97 20.9382 12.952 21.0891V23H10.8568V21.0891C9.83846 20.9383 8.8657 20.5657 8.00725 19.9975L6.88315 21.1216L5.40182 19.6403L6.44839 18.5937C5.86295 17.8849 5.42166 17.0685 5.14934 16.1905H3.52344V14.0952Z" stroke="currentColor" stroke-width="1.5" stroke-linejoin="round"/>
</svg>
