<svg width="24" height="24" viewBox="0 0 24 24" fill="none" xmlns="http://www.w3.org/2000/svg">
  <path d="M2 9C2 11.6522 3.05357 14.1957 4.92893 16.0711C6.8043 17.9464 9.34784 19 12 19C14.6522 19 17.1957 17.9464 19.0711 16.0711C20.9464 14.1957 22 11.6522 22 9" stroke="currentColor" stroke-width="2" stroke-linecap="round" stroke-linejoin="round"/>
  
  <path d="M12 19C12 16.3478 13.0536 13.8043 14.9289 11.9289C16.8043 10.0536 19.3478 9 22 9" stroke="currentColor" stroke-width="2" stroke-linecap="round" stroke-linejoin="round"/>
  
  <path d="M2 9C4.65216 9 7.1957 10.0536 9.07107 11.9289C10.9464 13.8043 12 16.3478 12 19" stroke="currentColor" stroke-width="2" stroke-linecap="round" stroke-linejoin="round"/>
  
  <path d="M12 4C13.0078 4.96205 13.7965 6.12992 14.3124 7.42412C14.8284 8.71832 15.0595 10.1085 14.99 11.5" stroke="currentColor" stroke-width="2" stroke-linecap="round" stroke-linejoin="round"/>
  
  <path d="M9.01012 11.5C8.94063 10.1085 9.17173 8.71832 9.68769 7.42412C10.2036 6.12992 10.9923 4.96205 12.0001 4" stroke="currentColor" stroke-width="2" stroke-linecap="round" stroke-linejoin="round"/>
</svg>
